<svg xmlns="http://www.w3.org/2000/svg" viewBox="-2 -2 4 4" width="200" height="200" style="background: #000">
<g stroke-width="0.2" transform="scale(0.7,1)" stroke="#fff" fill="none">
<path d="M 0.5 -0.866 A 1 1 0 0 0 -0.866 -0.5"  stroke="#fff"/>
<path d="M -0.866 -0.5 A 1 1 0 0 0 -1 0" stroke="#fff" />
<path d="M -1 0 A 1 1 0 0 0 -0.866 0.5" stroke ="#fff"/>

<path d="M -0.866 0.5 A 1 1 0 0 0 0.5 0.866" stroke="#fff"/>
<path d="M 0.5 0.866 A 1 1 0 0 0 1 0" />
<path d="M 1 0 A 1 1 0 0 0 0.5 -0.866" stroke="#fff" />

<path d="M-0.8 0 L0.8 0"/>
</g>
  
</svg>
